<svg width="152" height="48" viewBox="0 0 152 48" fill="none" xmlns="http://www.w3.org/2000/svg">
<path d="M151.306 0.165741V47.1657H16.1011L0.306152 31.426V0.165741H151.306Z" fill="url(#paint0_linear_278_2372)"/>
<path d="M149.786 1.67688H1.82812V45.6465H149.786V1.67688Z" fill="#121117"/>
<path d="M12.0771 0.62085L0.849121 11.8041V16.7674L17.061 0.62085H12.0771Z" fill="#E3364E"/>
<path d="M0.849121 20.1723V22.0456L21.855 1.12347H19.9741L0.849121 20.1723Z" fill="#E3364E"/>
<path d="M0.306152 47.1657H11.8379L0.306152 35.6791V47.1657Z" fill="url(#paint1_linear_278_2372)"/>
<path d="M151.306 18.1327V28.8961L132.963 47.1657H122.158L151.306 18.1327Z" fill="url(#paint2_linear_278_2372)"/>
<path d="M150.413 8.46582L111.559 47.1657H114.772L150.413 11.6662V8.46582Z" fill="#48B7F5"/>
<defs>
<linearGradient id="paint0_linear_278_2372" x1="0.306152" y1="23.6657" x2="151.306" y2="23.6657" gradientUnits="userSpaceOnUse">
<stop stop-color="#FF1E2F"/>
<stop offset="1" stop-color="#3EBFFF"/>
</linearGradient>
<linearGradient id="paint1_linear_278_2372" x1="0.306152" y1="41.4224" x2="11.8379" y2="41.4224" gradientUnits="userSpaceOnUse">
<stop stop-color="#FF1E2F"/>
<stop offset="1" stop-color="#3EBFFF"/>
</linearGradient>
<linearGradient id="paint2_linear_278_2372" x1="131.315" y1="45.2511" x2="149.802" y2="21.5695" gradientUnits="userSpaceOnUse">
<stop stop-color="#52AFEA"/>
<stop offset="1" stop-color="#3EBFFF"/>
</linearGradient>
</defs>
</svg>
